<?xml version="1.0" standalone="no"?>
<svg xmlns:xlink="http://www.w3.org/1999/xlink" id="wave" style="transform:rotate(0deg); transition: 0.3s" viewBox="0 0 1440 130" version="1.1" xmlns="http://www.w3.org/2000/svg"><defs><linearGradient id="sw-gradient-0" x1="0" x2="0" y1="1" y2="0"><stop stop-color="rgba(255, 255, 255, 1)" offset="0%"/><stop stop-color="rgba(255, 255, 255, 1)" offset="100%"/></linearGradient></defs><path style="transform:translate(0, 0px); opacity:1" fill="url(#sw-gradient-0)" d="M0,52L30,49.8C60,48,120,43,180,49.8C240,56,300,74,360,78C420,82,480,74,540,67.2C600,61,660,56,720,56.3C780,56,840,61,900,65C960,69,1020,74,1080,82.3C1140,91,1200,104,1260,104C1320,104,1380,91,1440,73.7C1500,56,1560,35,1620,32.5C1680,30,1740,48,1800,52C1860,56,1920,48,1980,39C2040,30,2100,22,2160,30.3C2220,39,2280,65,2340,62.8C2400,61,2460,30,2520,17.3C2580,4,2640,9,2700,19.5C2760,30,2820,48,2880,62.8C2940,78,3000,91,3060,95.3C3120,100,3180,95,3240,78C3300,61,3360,30,3420,15.2C3480,0,3540,0,3600,13C3660,26,3720,52,3780,65C3840,78,3900,78,3960,69.3C4020,61,4080,43,4140,36.8C4200,30,4260,35,4290,36.8L4320,39L4320,130L4290,130C4260,130,4200,130,4140,130C4080,130,4020,130,3960,130C3900,130,3840,130,3780,130C3720,130,3660,130,3600,130C3540,130,3480,130,3420,130C3360,130,3300,130,3240,130C3180,130,3120,130,3060,130C3000,130,2940,130,2880,130C2820,130,2760,130,2700,130C2640,130,2580,130,2520,130C2460,130,2400,130,2340,130C2280,130,2220,130,2160,130C2100,130,2040,130,1980,130C1920,130,1860,130,1800,130C1740,130,1680,130,1620,130C1560,130,1500,130,1440,130C1380,130,1320,130,1260,130C1200,130,1140,130,1080,130C1020,130,960,130,900,130C840,130,780,130,720,130C660,130,600,130,540,130C480,130,420,130,360,130C300,130,240,130,180,130C120,130,60,130,30,130L0,130Z"/></svg>